<svg version="1.1" xmlns="http://www.w3.org/2000/svg" xmlns:xlink="http://www.w3.org/1999/xlink" width="1124" height="444"><defs/><g><text fill="#eeeeee" stroke="none" font-family="Arial" font-size="24px" font-style="normal" font-weight="normal" text-decoration="none" x="0" y="0"></text><text fill="#eeeeee" stroke="none" font-family="Arial" font-size="24px" font-style="normal" font-weight="normal" text-decoration="none" x="0" y="30"></text><text fill="#eeeeee" stroke="none" font-family="Arial" font-size="24px" font-style="normal" font-weight="normal" text-decoration="none" x="0" y="60"></text><text fill="#eeeeee" stroke="none" font-family="Arial" font-size="24px" font-style="normal" font-weight="normal" text-decoration="none" x="0" y="90"></text><text fill="#eeeeee" stroke="none" font-family="Arial" font-size="24px" font-style="normal" font-weight="normal" text-decoration="none" x="0" y="120"></text><text fill="#eeeeee" stroke="none" font-family="Arial" font-size="24px" font-style="normal" font-weight="normal" text-decoration="none" x="0" y="150"></text><text fill="#eeeeee" stroke="none" font-family="Arial" font-size="24px" font-style="normal" font-weight="normal" text-decoration="none" x="0" y="180"></text><text fill="#eeeeee" stroke="none" font-family="Arial" font-size="24px" font-style="normal" font-weight="normal" text-decoration="none" x="0" y="210"></text><text fill="#eeeeee" stroke="none" font-family="Arial" font-size="24px" font-style="normal" font-weight="normal" text-decoration="none" x="0" y="240"></text><text fill="#eeeeee" stroke="none" font-family="Arial" font-size="24px" font-style="normal" font-weight="normal" text-decoration="none" x="0" y="270"></text><text fill="#eeeeee" stroke="none" font-family="Arial" font-size="24px" font-style="normal" font-weight="normal" text-decoration="none" x="0" y="300"></text><text fill="#eeeeee" stroke="none" font-family="Arial" font-size="24px" font-style="normal" font-weight="normal" text-decoration="none" x="0" y="330"></text><text fill="#eeeeee" stroke="none" font-family="Arial" font-size="24px" font-style="normal" font-weight="normal" text-decoration="none" x="0" y="360"></text><text fill="#eeeeee" stroke="none" font-family="Arial" font-size="24px" font-style="normal" font-weight="normal" text-decoration="none" x="0" y="390"></text><text fill="#eeeeee" stroke="none" font-family="Arial" font-size="24px" font-style="normal" font-weight="normal" text-decoration="none" x="0" y="420"></text><text fill="#eeeeee" stroke="none" font-family="Arial" font-size="24px" font-style="normal" font-weight="normal" text-decoration="none" x="200" y="0"></text><text fill="#eeeeee" stroke="none" font-family="Arial" font-size="24px" font-style="normal" font-weight="normal" text-decoration="none" x="200" y="30"></text><text fill="#eeeeee" stroke="none" font-family="Arial" font-size="24px" font-style="normal" font-weight="normal" text-decoration="none" x="200" y="60"></text><text fill="#eeeeee" stroke="none" font-family="Arial" font-size="24px" font-style="normal" font-weight="normal" text-decoration="none" x="200" y="90"></text><text fill="#eeeeee" stroke="none" font-family="Arial" font-size="24px" font-style="normal" font-weight="normal" text-decoration="none" x="200" y="120"></text><text fill="#eeeeee" stroke="none" font-family="Arial" font-size="24px" font-style="normal" font-weight="normal" text-decoration="none" x="200" y="150"></text><text fill="#eeeeee" stroke="none" font-family="Arial" font-size="24px" font-style="normal" font-weight="normal" text-decoration="none" x="200" y="180"></text><text fill="#eeeeee" stroke="none" font-family="Arial" font-size="24px" font-style="normal" font-weight="normal" text-decoration="none" x="200" y="210"></text><text fill="#eeeeee" stroke="none" font-family="Arial" font-size="24px" font-style="normal" font-weight="normal" text-decoration="none" x="200" y="240"></text><text fill="#eeeeee" stroke="none" font-family="Arial" font-size="24px" font-style="normal" font-weight="normal" text-decoration="none" x="200" y="270"></text><text fill="#eeeeee" stroke="none" font-family="Arial" font-size="24px" font-style="normal" font-weight="normal" text-decoration="none" x="200" y="300"></text><text fill="#eeeeee" stroke="none" font-family="Arial" font-size="24px" font-style="normal" font-weight="normal" text-decoration="none" x="200" y="330"></text><text fill="#eeeeee" stroke="none" font-family="Arial" font-size="24px" font-style="normal" font-weight="normal" text-decoration="none" x="200" y="360"></text><text fill="#eeeeee" stroke="none" font-family="Arial" font-size="24px" font-style="normal" font-weight="normal" text-decoration="none" x="200" y="390"></text><text fill="#eeeeee" stroke="none" font-family="Arial" font-size="24px" font-style="normal" font-weight="normal" text-decoration="none" x="200" y="420"></text><text fill="#eeeeee" stroke="none" font-family="Arial" font-size="24px" font-style="normal" font-weight="normal" text-decoration="none" x="400" y="0"></text><text fill="#eeeeee" stroke="none" font-family="Arial" font-size="24px" font-style="normal" font-weight="normal" text-decoration="none" x="400" y="30"></text><text fill="#eeeeee" stroke="none" font-family="Arial" font-size="24px" font-style="normal" font-weight="normal" text-decoration="none" x="400" y="60"></text><text fill="#eeeeee" stroke="none" font-family="Arial" font-size="24px" font-style="normal" font-weight="normal" text-decoration="none" x="400" y="90"></text><text fill="#eeeeee" stroke="none" font-family="Arial" font-size="24px" font-style="normal" font-weight="normal" text-decoration="none" x="400" y="120"></text><text fill="#eeeeee" stroke="none" font-family="Arial" font-size="24px" font-style="normal" font-weight="normal" text-decoration="none" x="400" y="150"></text><text fill="#eeeeee" stroke="none" font-family="Arial" font-size="24px" font-style="normal" font-weight="normal" text-decoration="none" x="400" y="180"></text><text fill="#eeeeee" stroke="none" font-family="Arial" font-size="24px" font-style="normal" font-weight="normal" text-decoration="none" x="400" y="210"></text><text fill="#eeeeee" stroke="none" font-family="Arial" font-size="24px" font-style="normal" font-weight="normal" text-decoration="none" x="400" y="240"></text><text fill="#eeeeee" stroke="none" font-family="Arial" font-size="24px" font-style="normal" font-weight="normal" text-decoration="none" x="400" y="270"></text><text fill="#eeeeee" stroke="none" font-family="Arial" font-size="24px" font-style="normal" font-weight="normal" text-decoration="none" x="400" y="300"></text><text fill="#eeeeee" stroke="none" font-family="Arial" font-size="24px" font-style="normal" font-weight="normal" text-decoration="none" x="400" y="330"></text><text fill="#eeeeee" stroke="none" font-family="Arial" font-size="24px" font-style="normal" font-weight="normal" text-decoration="none" x="400" y="360"></text><text fill="#eeeeee" stroke="none" font-family="Arial" font-size="24px" font-style="normal" font-weight="normal" text-decoration="none" x="400" y="390"></text><text fill="#eeeeee" stroke="none" font-family="Arial" font-size="24px" font-style="normal" font-weight="normal" text-decoration="none" x="400" y="420"></text><text fill="#eeeeee" stroke="none" font-family="Arial" font-size="24px" font-style="normal" font-weight="normal" text-decoration="none" x="600" y="0"></text><text fill="#eeeeee" stroke="none" font-family="Arial" font-size="24px" font-style="normal" font-weight="normal" text-decoration="none" x="600" y="30"></text><text fill="#eeeeee" stroke="none" font-family="Arial" font-size="24px" font-style="normal" font-weight="normal" text-decoration="none" x="600" y="60"></text><text fill="#eeeeee" stroke="none" font-family="Arial" font-size="24px" font-style="normal" font-weight="normal" text-decoration="none" x="600" y="90"></text><text fill="#eeeeee" stroke="none" font-family="Arial" font-size="24px" font-style="normal" font-weight="normal" text-decoration="none" x="600" y="120"></text><text fill="#eeeeee" stroke="none" font-family="Arial" font-size="24px" font-style="normal" font-weight="normal" text-decoration="none" x="600" y="150"></text><text fill="#eeeeee" stroke="none" font-family="Arial" font-size="24px" font-style="normal" font-weight="normal" text-decoration="none" x="600" y="180"></text><text fill="#eeeeee" stroke="none" font-family="Arial" font-size="24px" font-style="normal" font-weight="normal" text-decoration="none" x="600" y="210"></text><text fill="#eeeeee" stroke="none" font-family="Arial" font-size="24px" font-style="normal" font-weight="normal" text-decoration="none" x="600" y="240"></text><text fill="#eeeeee" stroke="none" font-family="Arial" font-size="24px" font-style="normal" font-weight="normal" text-decoration="none" x="600" y="270"></text><text fill="#eeeeee" stroke="none" font-family="Arial" font-size="24px" font-style="normal" font-weight="normal" text-decoration="none" x="600" y="300"></text><text fill="#eeeeee" stroke="none" font-family="Arial" font-size="24px" font-style="normal" font-weight="normal" text-decoration="none" x="600" y="330"></text><text fill="#eeeeee" stroke="none" font-family="Arial" font-size="24px" font-style="normal" font-weight="normal" text-decoration="none" x="600" y="360"></text><text fill="#eeeeee" stroke="none" font-family="Arial" font-size="24px" font-style="normal" font-weight="normal" text-decoration="none" x="600" y="390"></text><text fill="#eeeeee" stroke="none" font-family="Arial" font-size="24px" font-style="normal" font-weight="normal" text-decoration="none" x="600" y="420"></text><text fill="#eeeeee" stroke="none" font-family="Arial" font-size="24px" font-style="normal" font-weight="normal" text-decoration="none" x="800" y="0"></text><text fill="#eeeeee" stroke="none" font-family="Arial" font-size="24px" font-style="normal" font-weight="normal" text-decoration="none" x="800" y="30"></text><text fill="#eeeeee" stroke="none" font-family="Arial" font-size="24px" font-style="normal" font-weight="normal" text-decoration="none" x="800" y="60"></text><text fill="#eeeeee" stroke="none" font-family="Arial" font-size="24px" font-style="normal" font-weight="normal" text-decoration="none" x="800" y="90"></text><text fill="#eeeeee" stroke="none" font-family="Arial" font-size="24px" font-style="normal" font-weight="normal" text-decoration="none" x="800" y="120"></text><text fill="#eeeeee" stroke="none" font-family="Arial" font-size="24px" font-style="normal" font-weight="normal" text-decoration="none" x="800" y="150"></text><text fill="#eeeeee" stroke="none" font-family="Arial" font-size="24px" font-style="normal" font-weight="normal" text-decoration="none" x="800" y="180"></text><text fill="#eeeeee" stroke="none" font-family="Arial" font-size="24px" font-style="normal" font-weight="normal" text-decoration="none" x="800" y="210"></text><text fill="#eeeeee" stroke="none" font-family="Arial" font-size="24px" font-style="normal" font-weight="normal" text-decoration="none" x="800" y="240"></text><text fill="#eeeeee" stroke="none" font-family="Arial" font-size="24px" font-style="normal" font-weight="normal" text-decoration="none" x="800" y="270"></text><text fill="#eeeeee" stroke="none" font-family="Arial" font-size="24px" font-style="normal" font-weight="normal" text-decoration="none" x="800" y="300"></text><text fill="#eeeeee" stroke="none" font-family="Arial" font-size="24px" font-style="normal" font-weight="normal" text-decoration="none" x="800" y="330"></text><text fill="#eeeeee" stroke="none" font-family="Arial" font-size="24px" font-style="normal" font-weight="normal" text-decoration="none" x="800" y="360"></text><text fill="#eeeeee" stroke="none" font-family="Arial" font-size="24px" font-style="normal" font-weight="normal" text-decoration="none" x="800" y="390"></text><text fill="#eeeeee" stroke="none" font-family="Arial" font-size="24px" font-style="normal" font-weight="normal" text-decoration="none" x="800" y="420"></text><text fill="#eeeeee" stroke="none" font-family="Arial" font-size="24px" font-style="normal" font-weight="normal" text-decoration="none" x="1000" y="0"></text><text fill="#eeeeee" stroke="none" font-family="Arial" font-size="24px" font-style="normal" font-weight="normal" text-decoration="none" x="1000" y="30"></text><text fill="#eeeeee" stroke="none" font-family="Arial" font-size="24px" font-style="normal" font-weight="normal" text-decoration="none" x="1000" y="60"></text><text fill="#eeeeee" stroke="none" font-family="Arial" font-size="24px" font-style="normal" font-weight="normal" text-decoration="none" x="1000" y="90"></text><text fill="#eeeeee" stroke="none" font-family="Arial" font-size="24px" font-style="normal" font-weight="normal" text-decoration="none" x="1000" y="120"></text><text fill="#eeeeee" stroke="none" font-family="Arial" font-size="24px" font-style="normal" font-weight="normal" text-decoration="none" x="1000" y="150"></text><text fill="#eeeeee" stroke="none" font-family="Arial" font-size="24px" font-style="normal" font-weight="normal" text-decoration="none" x="1000" y="180"></text><text fill="#eeeeee" stroke="none" font-family="Arial" font-size="24px" font-style="normal" font-weight="normal" text-decoration="none" x="1000" y="210"></text><text fill="#eeeeee" stroke="none" font-family="Arial" font-size="24px" font-style="normal" font-weight="normal" text-decoration="none" x="1000" y="240"></text><text fill="#eeeeee" stroke="none" font-family="Arial" font-size="24px" font-style="normal" font-weight="normal" text-decoration="none" x="1000" y="270"></text><text fill="#eeeeee" stroke="none" font-family="Arial" font-size="24px" font-style="normal" font-weight="normal" text-decoration="none" x="1000" y="300"></text><text fill="#eeeeee" stroke="none" font-family="Arial" font-size="24px" font-style="normal" font-weight="normal" text-decoration="none" x="1000" y="330"></text><text fill="#eeeeee" stroke="none" font-family="Arial" font-size="24px" font-style="normal" font-weight="normal" text-decoration="none" x="1000" y="360"></text><text fill="#eeeeee" stroke="none" font-family="Arial" font-size="24px" font-style="normal" font-weight="normal" text-decoration="none" x="1000" y="390"></text><text fill="#eeeeee" stroke="none" font-family="Arial" font-size="24px" font-style="normal" font-weight="normal" text-decoration="none" x="1000" y="420"></text><g transform="translate(-46,-382) scale(1,1)"><rect fill="#C0C0C0" stroke="none" x="63" y="615" width="50.919921875" height="44" opacity="0.2"/></g><g transform="translate(-46,-382) scale(1,1)"><rect fill="#ffffff" stroke="none" x="56" y="608" width="50.919921875" height="44"/></g><g transform="translate(-46,-382) scale(1,1)"><path fill="none" stroke="#000000" d="M 56 608 L 106.919921875 608 L 106.919921875 652 L 56 652 L 56 608 Z Z" stroke-miterlimit="10"/></g><g transform="translate(-46,-382) scale(1,1)"><g><path fill="none" stroke="none"/><text fill="#000000" stroke="none" font-family="Arial" font-size="13px" font-style="normal" font-weight="bold" text-decoration="none" x="63.404052734375" y="625.5">Client</text></g></g><g transform="translate(-46,-382) scale(1,1)"><rect fill="#C0C0C0" stroke="none" x="367" y="399" width="320" height="15" opacity="0.2"/></g><g transform="translate(-46,-382) scale(1,1)"><rect fill="#C0C0C0" stroke="none" x="367" y="413" width="800" height="410" opacity="0.2"/></g><g transform="translate(-46,-382) scale(1,1)"><rect fill="#ffffff" stroke="none" x="360" y="407" width="800" height="409"/></g><g transform="translate(-46,-382) scale(1,1)"><path fill="none" stroke="#000000" d="M 360 407 L 1160 407 L 1160 816 L 360 816 L 360 407 Z Z" stroke-miterlimit="10"/></g><g transform="translate(-46,-382) scale(1,1)"><rect fill="#ffffff" stroke="none" x="360" y="392" width="320" height="15"/></g><g transform="translate(-46,-382) scale(1,1)"><path fill="none" stroke="#000000" d="M 360 392 L 680 392 L 680 407 L 360 407 L 360 392 Z Z" stroke-miterlimit="10"/></g><g transform="translate(-46,-382) scale(1,1)"><rect fill="#ffffff" stroke="none" x="360" y="406" width="800" height="410"/></g><g transform="translate(-46,-382) scale(1,1)"><path fill="none" stroke="#000000" d="M 360 406 L 1160 406 L 1160 816 L 360 816 L 360 406 Z Z" stroke-miterlimit="10"/></g><g transform="translate(-46,-382) scale(1,1)"><g><path fill="none" stroke="none"/><text fill="#000000" stroke="none" font-family="Arial" font-size="13px" font-style="normal" font-weight="bold" text-decoration="none" x="724.234130859375" y="424.5">Private part</text></g></g><g transform="translate(-46,-382) scale(1,1)"><rect fill="#C0C0C0" stroke="none" x="783" y="543" width="104" height="40" opacity="0.2"/></g><g transform="translate(-46,-382) scale(1,1)"><rect fill="#ffffff" stroke="none" x="776" y="536" width="104" height="40"/></g><g transform="translate(-46,-382) scale(1,1)"><path fill="none" stroke="#000000" d="M 776 536 L 880 536 L 880 576 L 776 576 L 776 536 Z Z" stroke-miterlimit="10"/></g><g transform="translate(-46,-382) scale(1,1)"><g><path fill="none" stroke="none"/><text fill="#000000" stroke="none" font-family="Arial" font-size="13px" font-style="normal" font-weight="bold" text-decoration="none" x="799.095947265625" y="553.5">Database</text></g></g><g transform="translate(-46,-382) scale(1,1)"><rect fill="#C0C0C0" stroke="none" x="783" y="679" width="104" height="44" opacity="0.2"/></g><g transform="translate(-46,-382) scale(1,1)"><rect fill="#ffffff" stroke="none" x="776" y="672" width="104" height="44"/></g><g transform="translate(-46,-382) scale(1,1)"><path fill="none" stroke="#000000" d="M 776 672 L 880 672 L 880 716 L 776 716 L 776 672 Z Z" stroke-miterlimit="10"/></g><g transform="translate(-46,-382) scale(1,1)"><g><path fill="none" stroke="none"/><text fill="#000000" stroke="none" font-family="Arial" font-size="13px" font-style="normal" font-weight="bold" text-decoration="none" x="803.799560546875" y="689.5">Storage</text></g></g><g transform="translate(-46,-382) scale(1,1)"><rect fill="#C0C0C0" stroke="none" x="783" y="607" width="104" height="44" opacity="0.2"/></g><g transform="translate(-46,-382) scale(1,1)"><rect fill="#ffffff" stroke="none" x="776" y="600" width="104" height="44"/></g><g transform="translate(-46,-382) scale(1,1)"><path fill="none" stroke="#000000" d="M 776 600 L 880 600 L 880 644 L 776 644 L 776 600 Z Z" stroke-miterlimit="10"/></g><g transform="translate(-46,-382) scale(1,1)"><g><path fill="none" stroke="none"/><text fill="#000000" stroke="none" font-family="Arial" font-size="13px" font-style="normal" font-weight="bold" text-decoration="none" x="793.70361328125" y="617.5">Computing</text></g></g><g transform="translate(-46,-382) scale(1,1)"><rect fill="#C0C0C0" stroke="none" x="359" y="591" width="136" height="48" opacity="0.2"/></g><g transform="translate(-46,-382) scale(1,1)"><rect fill="#ffffff" stroke="none" x="352" y="584" width="136" height="48"/></g><g transform="translate(-46,-382) scale(1,1)"><path fill="none" stroke="#000000" d="M 352 584 L 488 584 L 488 632 L 352 632 L 352 584 Z Z" stroke-miterlimit="10"/></g><g transform="translate(-46,-382) scale(1,1)"><path fill="none" stroke="#000000" d="M 352 609 L 488 609" stroke-miterlimit="10"/></g><g transform="translate(-46,-382) scale(1,1)"><g><path fill="none" stroke="none"/><text fill="#000000" stroke="none" font-family="Arial" font-size="13px" font-style="normal" font-weight="bold" text-decoration="none" x="393.263671875" y="601.5">Gateway</text></g></g><g transform="translate(-46,-382) scale(1,1)"><path fill="none" stroke="#000000" d="M 108 618 L 168 592 L 328 592 L 351 596" stroke-miterlimit="10"/></g><g transform="translate(-46,-382) scale(1,1)"><path fill="none" stroke="#000000" d="M 340.2663495524063 598.4059817266289 L 351 596 L 341.70887698731036 590.1114489759307" stroke-miterlimit="10"/></g><g transform="translate(-46,-382) scale(1,1)"><g><path fill="none" stroke="none"/><text fill="#000000" stroke="none" font-family="Arial" font-size="13px" font-style="normal" font-weight="normal" text-decoration="none" x="166.5" y="585.5">+Rest Request</text></g></g><g transform="translate(-46,-382) scale(1,1)"><path fill="none" stroke="#000000" d="M 351 633 L 288 656 L 128 656 L 108 645" stroke-miterlimit="10"/></g><g transform="translate(-46,-382) scale(1,1)"><path fill="none" stroke="#000000" d="M 118.93334291908138 646.2091371360491 L 108 645 L 114.87605185083555 653.5860299874051" stroke-miterlimit="10"/></g><g transform="translate(-46,-382) scale(1,1)"><g><path fill="none" stroke="none"/><text fill="#000000" stroke="none" font-family="Arial" font-size="13px" font-style="normal" font-weight="normal" text-decoration="none" x="177.5" y="645.5">+Response</text></g></g><g transform="translate(-46,-382) scale(1,1)"><path fill="#C0C0C0" stroke="none" d="M 556.639501953125 439 L 584.079501953125 439 L 595.839501953125 450.76 L 595.839501953125 488 L 556.639501953125 488" opacity="0.2"/></g><g transform="translate(-46,-382) scale(1,1)"><path fill="#ffffff" stroke="none" d="M 549.639501953125 432 L 577.079501953125 432 L 588.839501953125 443.76 L 588.839501953125 481 L 549.639501953125 481"/></g><g transform="translate(-46,-382) scale(1,1)"><path fill="none" stroke="#000000" d="M 549.639501953125 432 L 577.079501953125 432 L 588.839501953125 443.76 L 588.839501953125 481 L 549.639501953125 481 L 549.639501953125 432" stroke-miterlimit="10"/></g><g transform="translate(-46,-382) scale(1,1)"><path fill="none" stroke="#000000" d="M 577.079501953125 432 L 577.079501953125 443.76 L 588.839501953125 443.76 L 577.079501953125 432" stroke-miterlimit="10"/></g><g transform="translate(-46,-382) scale(1,1)"><g><path fill="none" stroke="none"/><text fill="#000000" stroke="none" font-family="Arial" font-size="13px" font-style="normal" font-weight="bold" text-decoration="none" x="524.799560546875" y="498.5">User database</text><path fill="none" stroke="#000000" d="M 613.679443359375 500.5 L 524.799560546875 500.5" stroke-miterlimit="10"/></g></g><g transform="translate(-46,-382) scale(1,1)"><path fill="none" stroke="#000000" d="M 824 536 L 824 480 L 626 480" stroke-miterlimit="10" stroke-dasharray="3"/></g><g transform="translate(-46,-382) scale(1,1)"><path fill="#FFFFFF" stroke="none" d="M 646.3253497152483 471.580964487968 L 626 480 L 646.3253497152483 488.419035512032"/></g><g transform="translate(-46,-382) scale(1,1)"><path fill="none" stroke="#000000" d="M 646.3253497152483 471.580964487968 L 626 480 L 646.3253497152483 488.419035512032 L 646.3253497152483 471.580964487968" stroke-miterlimit="10"/></g><g transform="translate(-46,-382) scale(1,1)"><path fill="none" stroke="#000000" d="M 447 583 L 528 507" stroke-miterlimit="10" stroke-dasharray="3"/></g><g transform="translate(-46,-382) scale(1,1)"><path fill="none" stroke="#000000" d="M 523.4691272921519 517.0235319376594 L 528 507 L 517.7084817790287 510.88389658814646" stroke-miterlimit="10"/></g><g transform="translate(-46,-382) scale(1,1)"><path fill="none" stroke="#000000" d="M 488 616 L 688 616 L 688 544 L 776 544" stroke-miterlimit="10"/></g><g transform="translate(-46,-382) scale(1,1)"><path fill="none" stroke="#000000" d="M 765.8373251423759 548.209517756016 L 776 544 L 765.8373251423758 539.790482243984" stroke-miterlimit="10"/></g><g transform="translate(-46,-382) scale(1,1)"><path fill="none" stroke="#000000" d="M 498.16267485762415 611.790482243984 L 488 616 L 498.16267485762415 620.209517756016" stroke-miterlimit="10"/></g><g transform="translate(-46,-382) scale(1,1)"><path fill="none" stroke="#000000" d="M 488 616 L 776 616" stroke-miterlimit="10"/></g><g transform="translate(-46,-382) scale(1,1)"><path fill="none" stroke="#000000" d="M 765.8373251423759 620.209517756016 L 776 616 L 765.8373251423758 611.790482243984" stroke-miterlimit="10"/></g><g transform="translate(-46,-382) scale(1,1)"><path fill="none" stroke="#000000" d="M 498.16267485762415 611.790482243984 L 488 616 L 498.16267485762415 620.209517756016" stroke-miterlimit="10"/></g><g transform="translate(-46,-382) scale(1,1)"><path fill="none" stroke="#000000" d="M 488 616 L 688 616 L 688 707 L 776 707" stroke-miterlimit="10"/></g><g transform="translate(-46,-382) scale(1,1)"><path fill="none" stroke="#000000" d="M 765.8373251423759 711.209517756016 L 776 707 L 765.8373251423758 702.790482243984" stroke-miterlimit="10"/></g><g transform="translate(-46,-382) scale(1,1)"><path fill="none" stroke="#000000" d="M 498.16267485762415 611.790482243984 L 488 616 L 498.16267485762415 620.209517756016" stroke-miterlimit="10"/></g><g transform="translate(-46,-382) scale(1,1)"><path fill="#C0C0C0" stroke="none" d="M 1068.639501953125 559 L 1096.0795019531251 559 L 1107.8395019531251 570.76 L 1107.8395019531251 608 L 1068.639501953125 608" opacity="0.2"/></g><g transform="translate(-46,-382) scale(1,1)"><path fill="#ffffff" stroke="none" d="M 1061.639501953125 552 L 1089.079501953125 552 L 1100.839501953125 563.76 L 1100.839501953125 601 L 1061.639501953125 601"/></g><g transform="translate(-46,-382) scale(1,1)"><path fill="none" stroke="#000000" d="M 1061.639501953125 552 L 1089.079501953125 552 L 1100.839501953125 563.76 L 1100.839501953125 601 L 1061.639501953125 601 L 1061.639501953125 552" stroke-miterlimit="10"/></g><g transform="translate(-46,-382) scale(1,1)"><path fill="none" stroke="#000000" d="M 1089.079501953125 552 L 1089.079501953125 563.76 L 1100.839501953125 563.76 L 1089.079501953125 552" stroke-miterlimit="10"/></g><g transform="translate(-46,-382) scale(1,1)"><g><path fill="none" stroke="none"/><text fill="#000000" stroke="none" font-family="Arial" font-size="13px" font-style="normal" font-weight="bold" text-decoration="none" x="1036.82177734375" y="618.5">Cloud Storage</text><path fill="none" stroke="#000000" d="M 1125.6572265625 620.5 L 1036.82177734375 620.5" stroke-miterlimit="10"/></g></g><g transform="translate(-46,-382) scale(1,1)"><path fill="none" stroke="#000000" d="M 880 704 L 1080 704 L 1080 626" stroke-miterlimit="10" stroke-dasharray="3"/></g><g transform="translate(-46,-382) scale(1,1)"><path fill="#FFFFFF" stroke="none" d="M 1088.419035512032 646.3253497152483 L 1080 626 L 1071.580964487968 646.3253497152483"/></g><g transform="translate(-46,-382) scale(1,1)"><path fill="none" stroke="#000000" d="M 1088.419035512032 646.3253497152483 L 1080 626 L 1071.580964487968 646.3253497152483 L 1088.419035512032 646.3253497152483" stroke-miterlimit="10"/></g><g transform="translate(-46,-382) scale(1,1)"><path fill="none" stroke="#000000" d="M 880 616 L 952 616 L 952 592 L 1024 592" stroke-miterlimit="10" stroke-dasharray="3"/></g><g transform="translate(-46,-382) scale(1,1)"><path fill="none" stroke="#000000" d="M 1013.8373251423759 596.209517756016 L 1024 592 L 1013.8373251423758 587.790482243984" stroke-miterlimit="10"/></g><g transform="translate(-46,-382) scale(1,1)"><path fill="none" stroke="#000000" d="M 880 560 L 952 560 L 952 592 L 1024 592" stroke-miterlimit="10" stroke-dasharray="3"/></g><g transform="translate(-46,-382) scale(1,1)"><path fill="none" stroke="#000000" d="M 1013.8373251423759 596.209517756016 L 1024 592 L 1013.8373251423758 587.790482243984" stroke-miterlimit="10"/></g></g></svg>